<?xml version="1.0" standalone="no"?><!DOCTYPE svg PUBLIC "-//W3C//DTD SVG 1.1//EN" "http://www.w3.org/Graphics/SVG/1.1/DTD/svg11.dtd"><svg t="1781619495291" class="icon" viewBox="0 0 1024 1024" version="1.1" xmlns="http://www.w3.org/2000/svg" p-id="12920" xmlns:xlink="http://www.w3.org/1999/xlink" width="200" height="200"><path d="M512 512m-512 0a512 512 0 1 0 1024 0 512 512 0 1 0-1024 0Z" fill="#3598FE" p-id="12921"></path><path d="M324.408781 655.018925C505.290126 655.018925 651.918244 508.387706 651.918244 327.509463c0-152.138029-103.733293-280.047334-244.329811-316.853972C205.813923 52.463528 47.497011 213.017581 8.987325 415.981977 47.587706 553.880127 174.183098 655.018925 324.408781 655.018925z" fill="#FFFFFF" fill-opacity=".2" p-id="12922"></path><path d="M512 1024c282.766631 0 512-229.233369 512-512 0-31.765705-2.891385-62.853911-8.433853-93.018889C928.057169 336.0999 809.874701 285.26268 679.824375 285.26268c-269.711213 0-488.357305 218.645317-488.357305 488.357305 0 54.959576 9.084221 107.802937 25.822474 157.10377C300.626556 989.489417 402.283167 1024 512 1024z" fill="#FFFFFF" fill-opacity=".15" p-id="12923"></path><path d="M732.535958 756.566238c36.389596 0 65.889478-29.499882 65.889477-65.889478 0 36.389596 29.502983 65.889478 65.889478 65.889478-17.053747 0-65.889478 29.502983-65.889478 65.889477 0-36.386495-29.499882-65.889478-65.889477-65.889477zM159.685087 247.279334c25.686819 0 46.51022-20.8234 46.51022-46.51022 0 25.686819 20.8234 46.51022 46.510219 46.51022-12.03607 0-46.51022 20.8234-46.510219 46.510219 0-25.686819-20.8234-46.51022-46.51022-46.510219z" fill="#FFFFFF" fill-opacity=".5" p-id="12924"></path><path d="M206.195307 333.32324c8.562531 0 15.503407-6.940875 15.503406-15.503407 0 8.562531 6.940875 15.503407 15.503407 15.503407-4.012282 0-15.503407 6.940875-15.503407 15.503406 0-8.562531-6.940875-15.503407-15.503406-15.503406z" fill="#FFFFFF" fill-opacity=".3" p-id="12925"></path><path d="M272.084784 360.454201m31.006813 0l418.591976 0q31.006813 0 31.006813 31.006813l0 288.363361q0 31.006813-31.006813 31.006813l-418.591976 0q-31.006813 0-31.006813-31.006813l0-288.363361q0-31.006813 31.006813-31.006813Z" fill="#FFFFFF" p-id="12926"></path><path d="M515.100681 263.170326m-49.998486 0a49.998486 49.998486 0 1 0 99.996972 0 49.998486 49.998486 0 1 0-99.996972 0Z" fill="#FFFFFF" p-id="12927"></path><path d="M480.932724 274.410295l29.650265 32.758698-105.748736 95.713381-29.650265-32.758698zM542.81302 274.410295L513.162755 307.168993l105.748736 95.713381 29.650265-32.759473z" fill="#FFFFFF" p-id="12928"></path><path d="M327.13428 453.532778c0-8.769502 7.109087-15.879364 15.878589-15.879364h172.905617c8.769502 0 15.878589 7.109862 15.878589 15.879364 0 8.769502-7.109087 15.878589-15.878589 15.878589H343.012869c-8.769502 0-15.878589-7.109087-15.878589-15.878589zM327.13428 538.926316c0-8.769502 7.109087-15.878589 15.878589-15.878589h172.905617c8.769502 0 15.878589 7.109087 15.878589 15.878589 0 8.770277-7.109087 15.879364-15.878589 15.879365H343.012869c-8.769502 0-15.878589-7.109087-15.878589-15.879365zM327.13428 624.32063c0-8.769502 7.109087-15.879364 15.878589-15.879364h326.049817c8.769502 0 15.879364 7.109862 15.879364 15.879364 0 8.769502-7.109862 15.879364-15.879364 15.879364H343.012869c-8.769502 0-15.878589-7.109862-15.878589-15.879364z" fill="#53A7FE" p-id="12929"></path></svg>